<svg width="40" height="40" viewBox="0 0 40 40" fill="none" xmlns="http://www.w3.org/2000/svg">
<path d="M20.001 3.63855C10.4054 3.63855 2.62671 11.4187 2.62671 21.0128C2.62671 30.6084 10.4054 38.3857 20.001 38.3857C29.5965 38.3857 37.3739 30.6084 37.3739 21.0128C37.3739 11.4187 29.5958 3.63855 20.001 3.63855ZM28.7527 17.5097C28.7619 17.6974 28.7654 17.8858 28.7654 18.0763C28.7654 23.8626 24.3613 30.5336 16.3081 30.5336C13.8359 30.5336 11.5336 29.809 9.59618 28.5672C9.93908 28.6074 10.2869 28.6279 10.6404 28.6279C12.6921 28.6279 14.5802 27.928 16.0781 26.7539C14.1625 26.7179 12.5461 25.4515 11.9887 23.7123C12.2554 23.7645 12.5299 23.7906 12.8121 23.7906C13.2114 23.7906 13.5981 23.7384 13.9657 23.6375C11.9619 23.2353 10.4527 21.4644 10.4527 19.3449C10.4527 19.3258 10.4527 19.3075 10.4534 19.2885C11.0433 19.6165 11.7185 19.8134 12.4367 19.8367C11.2613 19.05 10.4887 17.7115 10.4887 16.1918C10.4887 15.3896 10.7046 14.6367 11.0814 13.9904C13.2411 16.6391 16.4676 18.3825 20.1068 18.5646C20.032 18.2449 19.9932 17.9098 19.9932 17.5669C19.9932 15.1497 21.9533 13.1889 24.3719 13.1889C25.6313 13.1889 26.7687 13.7209 27.5674 14.5711C28.565 14.3757 29.502 14.0102 30.3479 13.5086C30.0199 14.5316 29.3263 15.3896 28.4218 15.9307C29.3087 15.8249 30.1525 15.5892 30.9371 15.2414C30.3515 16.1212 29.6085 16.8924 28.7527 17.5097Z" fill="white"/>
</svg>
