<svg width="40" height="40" viewBox="0 0 40 40" fill="none" xmlns="http://www.w3.org/2000/svg">
<path d="M20 2C10.076 2 2 10.074 2 20C2 29.926 10.076 38 20 38C29.924 38 38 29.926 38 20C38 10.074 29.924 2 20 2ZM33.924 18.55C30.394 17.972 26.856 18.176 23.514 19.074C23.154 18.202 22.748 17.356 22.334 16.508C25.178 14.888 27.704 12.684 29.76 9.984C32.046 12.21 33.578 15.206 33.924 18.55ZM28.26 8.722C26.382 11.208 24.06 13.24 21.458 14.74C19.894 11.85 18 9.14 15.844 6.628C17.158 6.22 18.554 6 20 6C23.09 6 25.942 7.02 28.26 8.722ZM13.894 7.422C16.132 9.952 18.08 12.712 19.678 15.656C15.556 17.57 10.886 18.244 6.244 17.454C7.06 13.03 9.964 9.338 13.894 7.422ZM6 20C6 19.8 6.022 19.61 6.03 19.412C7.382 19.634 8.736 19.788 10.078 19.788C13.732 19.788 17.292 18.936 20.552 17.414C20.916 18.16 21.282 18.902 21.602 19.668C16.744 21.4 12.436 24.64 9.4 29.12C7.288 26.666 6 23.484 6 20ZM10.786 30.514C13.646 26.256 17.716 23.168 22.314 21.54C23.68 25.248 24.56 29.13 24.898 33.098C23.372 33.672 21.724 34 20 34C16.47 34 13.25 32.678 10.786 30.514ZM26.814 32.218C26.422 28.354 25.552 24.574 24.228 20.954C27.356 20.146 30.672 19.982 33.97 20.574C33.766 25.578 30.938 29.91 26.814 32.218Z" fill="white"/>
</svg>
