<svg width="40" height="40" viewBox="0 0 40 40" fill="none" xmlns="http://www.w3.org/2000/svg">
<path d="M26.8328 19.2313C24.5934 19.2313 24.2822 21.4665 24.2822 21.4665H29.0433C29.0433 21.4665 29.0736 19.2313 26.8328 19.2313Z" fill="white"/>
<path d="M16.0309 21.4665H11.8103V25.3414H15.5469C15.6104 25.3414 15.7057 25.3428 15.8171 25.3414C16.4183 25.3273 17.5577 25.1523 17.5577 23.4576C17.5577 21.446 16.0309 21.4665 16.0309 21.4665Z" fill="white"/>
<path d="M20.001 3.59903C10.4054 3.59903 2.62671 11.3764 2.62671 20.9719C2.62671 30.5674 10.4054 38.3462 20.001 38.3462C29.5951 38.3462 37.3739 30.5674 37.3739 20.9719C37.3739 11.3771 29.5944 3.59903 20.001 3.59903ZM23.6579 14.2741H29.6389V16.0591H23.6579V14.2741ZM20.6346 23.6382C20.6346 28.0627 16.0308 27.9167 16.0308 27.9167H11.8102H11.6867H8.48704V13.4203H11.6867H11.8102H16.0308C18.3225 13.4203 20.1315 14.6861 20.1315 17.2797C20.1315 19.8733 17.9196 20.0384 17.9196 20.0384C20.8357 20.0384 20.6346 23.6382 20.6346 23.6382ZM31.8233 23.4011H24.3112C24.3112 26.0935 26.8618 25.9242 26.8618 25.9242C29.2706 25.9242 29.1866 24.3642 29.1866 24.3642H31.7386C31.7386 28.5037 26.7764 28.2201 26.7764 28.2201C20.8244 28.2201 21.2075 22.6779 21.2075 22.6779C21.2075 22.6779 21.2018 17.109 26.7764 17.109C32.6445 17.109 31.8233 23.4011 31.8233 23.4011Z" fill="white"/>
<path d="M17.0561 17.5048C17.0561 15.997 16.0309 15.997 16.0309 15.997H15.4877H11.8103V19.2313H15.7692C16.4521 19.2313 17.0561 19.0119 17.0561 17.5048Z" fill="white"/>
</svg>
