<svg width="40" height="40" viewBox="0 0 40 40" fill="none" xmlns="http://www.w3.org/2000/svg">
<path d="M21.2167 19.1212V19.0669C21.2054 19.0852 21.1934 19.1036 21.1814 19.1212H21.2167Z" fill="white"/>
<path d="M34.759 3.29282H5.04107C3.61867 3.29282 2.46509 4.41888 2.46509 5.80671V35.8725C2.46509 37.2596 3.61867 38.3857 5.04107 38.3857H34.759C36.1835 38.3857 37.3371 37.2589 37.3371 35.8725V5.80671C37.3371 4.41818 36.1828 3.29282 34.759 3.29282ZM13.035 32.67H7.76803V16.8239H13.035V32.67ZM10.4019 14.6593H10.3666C8.59988 14.6593 7.45689 13.4422 7.45689 11.9217C7.45689 10.3674 8.63516 9.1842 10.4364 9.1842C12.2384 9.1842 13.3469 10.3674 13.3821 11.9217C13.3821 13.4422 12.2377 14.6593 10.4019 14.6593ZM32.0278 32.67H26.7609V24.1906C26.7609 22.0613 25.9989 20.6078 24.0932 20.6078C22.6383 20.6078 21.7719 21.5878 21.3902 22.5347C21.2512 22.8727 21.2173 23.3454 21.2173 23.8195V32.6693H15.9503C15.9503 32.6693 16.0195 18.3084 15.9503 16.8232H21.2173V19.0662C21.9172 17.9867 23.1689 16.4493 25.965 16.4493C29.43 16.4493 32.0285 18.7148 32.0285 23.5824V32.67H32.0278Z" fill="white"/>
</svg>
